<?xml version="1.0" encoding="UTF-8" standalone="no"?>
<!-- Created with Inkscape (http://www.inkscape.org/) -->

<svg
   width="210mm"
   height="297mm"
   viewBox="0 0 210 297"
   version="1.1"
   id="svg1"
   xml:space="preserve"
   inkscape:version="1.4 (86a8ad7, 2024-10-11)"
   sodipodi:docname="iconmission.svg"
   xmlns:inkscape="http://www.inkscape.org/namespaces/inkscape"
   xmlns:sodipodi="http://sodipodi.sourceforge.net/DTD/sodipodi-0.dtd"
   xmlns="http://www.w3.org/2000/svg"
   xmlns:svg="http://www.w3.org/2000/svg"><sodipodi:namedview
     id="namedview1"
     pagecolor="#ffffff"
     bordercolor="#666666"
     borderopacity="1.0"
     inkscape:showpageshadow="2"
     inkscape:pageopacity="0.0"
     inkscape:pagecheckerboard="0"
     inkscape:deskcolor="#d1d1d1"
     inkscape:document-units="mm"
     inkscape:zoom="1.4702523"
     inkscape:cx="-12.242796"
     inkscape:cy="899.50545"
     inkscape:window-width="3440"
     inkscape:window-height="1369"
     inkscape:window-x="1072"
     inkscape:window-y="280"
     inkscape:window-maximized="1"
     inkscape:current-layer="g12" /><defs
     id="defs1"><inkscape:path-effect
       effect="fillet_chamfer"
       id="path-effect9"
       is_visible="true"
       lpeversion="1"
       nodesatellites_param="F,0,0,1,0,0,0,1 @ F,0,0,1,0,0.012725359,0,1 @ F,0,1,1,0,2.2077768,0,1 @ F,0,0,1,0,2.2077768,0,1"
       radius="0"
       unit="px"
       method="auto"
       mode="F"
       chamfer_steps="1"
       flexible="false"
       use_knot_distance="true"
       apply_no_radius="true"
       apply_with_radius="true"
       only_selected="false"
       hide_knots="false" /></defs><g
     inkscape:label="Layer 1"
     inkscape:groupmode="layer"
     id="layer1"><path
       style="fill:#000000;stroke-width:0.51328"
       d="M 32.654856,70.120859 C 32.255314,69.912133 31.744533,69.497993 31.518957,69.19986 31.293509,68.901911 28.097057,63.580777 24.41572,57.375129 19.576439,49.21752 17.496879,45.833084 16.908286,45.156961 14.371527,42.242952 12.545225,38.389107 11.889243,34.565812 11.572421,32.719256 11.510894,29.5263 11.759974,27.857242 12.975282,19.713682 18.29464,13.160702 26.151823,10.127755 30.603496,8.4093689 36.11688,8.2092118 40.887044,9.5928097 46.992166,11.363614 52.280737,15.86184 54.968708,21.570055 c 2.306965,4.899093 2.677625,10.849343 0.996728,16.000211 -0.884186,2.709451 -2.219885,5.097292 -4.138526,7.398455 -0.723848,0.868167 -2.620094,3.947755 -7.648725,12.421878 -3.677451,6.197144 -6.870731,11.511312 -7.096174,11.809261 -0.620463,0.820016 -1.647808,1.300266 -2.781528,1.300266 -0.742793,0 -1.05922,-0.07293 -1.645627,-0.379267 z M 36.971995,46.39528 c 2.443157,-0.396252 4.510767,-1.209201 6.584511,-2.588923 9.373141,-6.236219 9.369322,-19.689126 -0.0073,-25.927682 -9.824111,-6.536245 -23.375849,-0.984062 -25.3256,10.375963 -1.318622,7.682854 3.386381,15.175649 11.043601,17.587116 2.351433,0.740529 5.262414,0.94966 7.704843,0.553526 z"
       id="path2" /><path
       style="fill:#000000;stroke-width:0.51328"
       d="m 32.510601,212.30428 c -0.399542,-0.20872 -0.910323,-0.62286 -1.135899,-0.921 -0.225448,-0.29795 -3.4219,-5.61908 -7.103237,-11.82473 -4.839281,-8.15761 -6.918841,-11.54204 -7.507434,-12.21817 -2.536759,-2.91401 -4.363061,-6.76785 -5.019043,-10.59115 -0.316822,-1.84655 -0.378349,-5.03951 -0.129269,-6.70857 1.215308,-8.14356 6.534666,-14.69654 14.391849,-17.72948 4.451673,-1.71839 9.965057,-1.91855 14.735221,-0.53495 6.105122,1.7708 11.393693,6.26903 14.081664,11.97725 2.306962,4.89909 2.677622,10.84934 0.996732,16.00021 -0.88419,2.70945 -2.219889,5.09729 -4.13853,7.39845 -0.723848,0.86817 -2.620094,3.94776 -7.648725,12.42188 -3.677451,6.19715 -6.870731,11.51131 -7.096174,11.80926 -0.620463,0.82002 -1.647808,1.30027 -2.781528,1.30027 -0.742793,0 -1.05922,-0.0729 -1.645627,-0.37927 z M 36.82774,188.5787 c 2.443157,-0.39625 4.510767,-1.2092 6.584511,-2.58892 9.373141,-6.23622 9.369322,-19.68913 -0.0073,-25.92768 -9.824111,-6.53625 -23.375849,-0.98407 -25.3256,10.37596 -1.318622,7.68285 3.386381,15.17565 11.043601,17.58712 2.351433,0.74053 5.262414,0.94966 7.704843,0.55352 z"
       id="path2-8" /><path
       style="fill:#000000;stroke-width:0.51328"
       d="m 87.217163,215.11261 c -0.39954,-0.20872 -0.91032,-0.62286 -1.1359,-0.921 -0.22545,-0.29795 -3.4219,-5.61908 -7.10323,-11.82473 -4.83928,-8.15761 -6.91884,-11.54204 -7.50744,-12.21817 -2.53676,-2.91401 -4.36306,-6.76785 -5.01904,-10.59115 -0.31682,-1.84655 -0.37835,-5.03951 -0.12927,-6.70857 1.21531,-8.14356 6.53467,-14.69654 14.39185,-17.72948 4.45167,-1.71839 9.96506,-1.91855 14.73522,-0.53495 6.105117,1.7708 11.393687,6.26903 14.081657,11.97725 2.30697,4.89909 2.67763,10.84934 0.99674,16.00021 -0.88419,2.70945 -2.21989,5.09729 -4.13853,7.39845 -0.72385,0.86817 -2.6201,3.94776 -7.648727,12.42188 -3.67745,6.19715 -6.87073,11.51131 -7.09617,11.80926 -0.62047,0.82002 -1.64781,1.30027 -2.78153,1.30027 -0.74279,0 -1.05922,-0.0729 -1.64563,-0.37927 z m 4.31714,-23.72558 c 2.44316,-0.39625 4.51077,-1.2092 6.58451,-2.58892 9.373137,-6.23622 9.369317,-19.68913 -0.007,-25.92768 -9.82411,-6.53625 -23.37585,-0.98407 -25.3256,10.37596 -1.31862,7.68285 3.38638,15.17565 11.0436,17.58712 2.35144,0.74053 5.26242,0.94966 7.70485,0.55352 z"
       id="path2-8-5" /><path
       style="fill:#000000;stroke-width:0.51328"
       d="M 83.576709,71.481744 C 76.502288,62.027838 71.542786,51.186401 64.586747,41.659491 58.136546,29.121683 67.143924,11.929529 81.195792,10.216551 c 12.654105,-2.2472766 26.575538,7.593268 26.821848,20.856721 0.47397,8.374821 -4.90772,15.28093 -9.435897,21.751067 -3.903068,6.222553 -7.02028,12.973557 -11.725678,18.665935 -1.008441,0.54475 -2.265674,0.484619 -3.279356,-0.0085 z M 87.893846,47.756165 C 99.638854,46.81096 106.1353,30.248005 97.658009,21.804612 90.423726,13.619767 75.082806,15.0602 70.431503,25.281897 c -4.275972,8.345811 0.737414,19.515896 9.768105,21.999756 2.474375,0.778872 5.143647,0.976187 7.694238,0.474512 z"
       id="path2-5" /><path
       style="fill:#000000;stroke-width:0.51328"
       d="m 137.3049,70.697956 c -7.07442,-9.453906 -12.03392,-20.295343 -18.98996,-29.822253 -6.4502,-12.537808 2.55718,-29.729962 16.60905,-31.4429404 12.6541,-2.247277 26.57554,7.5932684 26.82185,20.8567214 0.47397,8.374821 -4.90772,15.28093 -9.4359,21.751067 -3.90307,6.222553 -7.02028,12.973557 -11.72568,18.665935 -1.00844,0.54475 -2.26567,0.484619 -3.27936,-0.0085 z m 4.31714,-23.725579 c 11.74501,-0.945205 18.24146,-17.50816 9.76416,-25.951553 -7.23428,-8.184845 -22.5752,-6.744412 -27.2265,3.477285 -4.27597,8.345811 0.73741,19.515896 9.7681,21.999756 2.47438,0.778872 5.14365,0.976187 7.69424,0.474512 z"
       id="path2-5-9" /><path
       style="fill:#000000;stroke-width:0.51328"
       d="M 34.054037,139.79626 C 26.979616,130.34236 22.020114,119.50092 15.064076,109.97401 8.6138747,97.436202 17.621252,80.244045 31.673121,78.531071 c 12.654104,-2.247279 26.575536,7.593265 26.821849,20.85672 0.473963,8.374819 -4.907726,15.280929 -9.435898,21.751069 -3.903069,6.22255 -7.020281,12.97355 -11.725678,18.66593 -1.008442,0.54475 -2.265675,0.48462 -3.279357,-0.009 z m 4.317137,-23.72557 C 50.116182,115.12548 56.61263,98.562524 48.135337,90.119133 40.901055,81.934287 25.560135,83.37472 20.908832,93.596416 c -4.275972,8.345814 0.737414,19.515894 9.768104,21.999754 2.474375,0.77888 5.143647,0.97619 7.694238,0.47452 z"
       id="path2-5-7" /><path
       id="rect1-1"
       style="stroke-width:2.70735;stroke-linecap:square;stroke-linejoin:round;stroke-miterlimit:0"
       d="m 78.700962,22.364073 h 13.243486 l 7.928807,12.113993 H 70.597204 Z m -2.037269,11.973578 h 17.151492 v 9.160456 H 76.663693 Z"
       sodipodi:nodetypes="cccccccccc" /><path
       d="m 44.329141,40.527592 q 0,0.293865 -0.69355,0.293865 h -5.322584 q -0.290323,0 -1.887098,-2.027668 -1.580646,-2.042362 -1.661291,-2.057055 -0.306452,0.220398 -1.822582,2.248067 -1.370969,1.836656 -1.69355,1.836656 h -5.322584 q -0.693549,0 -0.693549,-0.293865 v -4.731226 q 0,-0.382025 1.983872,-2.571319 1.983873,-2.203988 1.983873,-2.718251 0,-0.470185 -2.016131,-2.674172 -2.01613,-2.218681 -2.01613,-2.600706 0,-0.382024 0.01613,-1.160767 0.01613,-0.793435 0.01613,-1.190153 0,-0.426104 -0.06452,-1.278312 -0.06452,-0.852209 -0.06452,-1.278313 0,-0.293866 0.693549,-0.293866 0.467742,0 1.435485,0.117546 0.983871,0.117546 1.467743,0.117546 0.403225,0 1.225807,-0.02938 0.83871,-0.02939 1.241936,-0.02939 0.306452,0 1.903227,2.042362 1.612905,2.027669 1.677421,2.042362 0.290323,-0.220399 1.919356,-2.248067 1.467743,-1.836657 1.806453,-1.836657 h 5.112906 q 0.693549,0 0.693549,0.308558 0,0.396718 -0.04839,1.21954 -0.04839,0.808129 -0.04839,1.204847 0,0.411411 0.04839,1.21954 0.04839,0.793435 0.04839,1.190153 0,0.484877 -2.032259,2.777024 -2.016131,2.277454 -2.016131,2.336227 0,0.293865 2.064518,2.556626 2.064518,2.26276 2.064518,2.600705 z"
       id="text1"
       style="font-weight:bold;font-size:61.4241px;line-height:1.25;font-family:'Berlin Sans FB';-inkscape-font-specification:'Berlin Sans FB, Bold';text-align:center;text-anchor:middle;stroke-width:0.0592454"
       aria-label="X" /><path
       id="rect2"
       style="fill:#000000;stroke-width:1.2;stroke-linecap:square;stroke-linejoin:round;stroke-miterlimit:0;stroke-dasharray:none;fill-opacity:1;stroke:#000000;stroke-opacity:1"
       d="m 26.877827,90.351807 v 13.201753 l -3.587296,2.07111 1.700054,2.94466 1.887242,-1.08963 v 3.52642 h 3.400361 v -5.48962 l 3.381182,-1.95193 v 7.44155 h 3.40036 v -9.40476 l 3.381179,-1.952198 v 11.356958 h 3.400362 V 97.685971 l 4.380808,-2.529109 -1.700309,-2.944923 -2.680499,1.547647 v -3.407779 h -3.400362 v 5.370967 l -3.381179,1.952199 v -7.323166 h -3.40036 v 9.286362 l -3.381182,1.952201 V 90.351807 Z" /><path
       style="fill:#000000;stroke-width:0.51328"
       d="M 87.649651,142.29493 C 80.57523,132.84103 75.615728,121.99959 68.659689,112.47268 62.209488,99.934866 71.216866,82.742716 85.268734,81.029736 c 12.654109,-2.24728 26.575536,7.59327 26.821846,20.856724 0.47397,8.37482 -4.90772,15.28093 -9.4359,21.75107 -3.903067,6.22255 -7.020277,12.97356 -11.725677,18.66593 -1.00844,0.54475 -2.26567,0.48462 -3.279352,-0.009 z m 4.317132,-23.72557 c 11.745007,-0.94521 18.241457,-17.50817 9.764167,-25.951564 -7.234277,-8.18484 -22.575202,-6.74441 -27.226505,3.47729 -4.275972,8.345814 0.737414,19.515894 9.768105,21.999754 2.474375,0.77888 5.143643,0.97619 7.694233,0.47452 z"
       id="path2-5-3" /><path
       style="fill:#000000;stroke-width:0.51328"
       d="m 142.92369,142.85083 c -7.07442,-9.4539 -12.03393,-20.29534 -18.98997,-29.82225 -6.4502,-12.53781 2.55718,-29.729956 16.60905,-31.442936 12.65411,-2.24728 26.57554,7.59327 26.82185,20.856716 0.47397,8.37482 -4.90772,15.28093 -9.4359,21.75107 -3.90307,6.22255 -7.02028,12.97356 -11.72568,18.66593 -1.00844,0.54475 -2.26567,0.48462 -3.27935,-0.009 z m 4.31713,-23.72557 c 11.74501,-0.94521 18.24146,-17.50817 9.76417,-25.951556 -7.23428,-8.18484 -22.57521,-6.74441 -27.22651,3.47729 -4.27597,8.345806 0.73741,19.515886 9.76811,21.999746 2.47437,0.77888 5.14364,0.97619 7.69423,0.47452 z"
       id="path2-5-3-6" /><path
       style="fill:#000000;stroke-width:0.536974"
       d="m 90.120131,115.4909 c -1.62112,-0.36706 -2.83311,-1.19839 -3.69798,-2.53653 -2.56268,-3.96495 0.20432,-9.09494 4.90561,-9.09494 2.46771,0 4.57924,1.42738 5.50245,3.71962 0.25318,0.62863 0.31397,1.05918 0.31092,2.20215 -0.003,1.23982 -0.053,1.52791 -0.38985,2.26232 -1.19705,2.60953 -3.96843,4.0503 -6.63115,3.44738 z m -11.36595,-9.97192 c 0,0 0.21942,-3.81938 1.77657,-5.37653 1.07113,-1.071126 2.76784,-1.229926 2.76784,-1.229926 h 4.54441 l 3.7689,-9.16379 h 6.3223 10.016239 l 0.0363,11.188346 0.0364,11.18835 h -4.56381 -4.563809 l 0.10141,-0.31967 c 0.20336,-0.64106 0.25209,-2.98825 0.0786,-3.78613 -0.8675,-3.98947 -4.8209,-6.73973 -8.84504,-6.1532 -3.21538,0.46864 -5.9736,3.02024 -6.65148,6.1532 -0.17262,0.79781 -0.12333,3.14693 0.0795,3.78613 l 0.10141,0.31967 h -2.50287 -2.50288 z"
       id="path6"
       sodipodi:nodetypes="sssscsscscccccccccssssscccc" /><path
       id="path8"
       style="fill:#000000;stroke-width:0.536756"
       d="m 148.26743,89.884951 -0.85215,0.788065 -16.84754,0.607198 v 2.762623 h 15.99123 c 1.25599,-0.307251 0.68547,3.015546 -1.82104,1.86862 -4.97237,-0.932998 -7.03229,-0.08264 -10.66704,3.705186 -1.94737,1.950887 -2.7834,5.106517 -1.45831,7.627957 1.94953,3.81654 6.33286,5.70882 10.419,6.10144 3.54345,0.32007 7.2541,-0.36708 10.28568,-2.28203 2.50468,-1.54155 4.66426,-4.43281 4.09329,-7.50652 h 4.19612 v -4.828121 h -6.7169 l -3.70417,-4.686532 h 10.42107 V 91.16601 l -10.95024,-0.492994 -0.85214,-0.788065 z m -5.91023,8.410851 c 0.57122,-0.009 1.13854,0.026 1.6862,0.10025 2.47297,0.303297 2.15897,-0.3998 2.42053,2.313028 -5.3701,3.44838 -2.72661,5.90492 -9.35189,6.04149 0,0 -2.30877,-3.60858 -1.13223,-5.37848 2.25245,-1.981266 3.9021,-3.036428 6.37739,-3.076288 z"
       sodipodi:nodetypes="cccccccccccccccccccccccccc" /><path
       id="path1"
       style="fill:#000000;fill-opacity:1;stroke-width:4;stroke-linecap:square;stroke-linejoin:round;stroke-miterlimit:0"
       d="m 89.078913,162.50196 a 5.3987327,5.6686692 0 0 0 -5.39864,5.66839 5.3987327,5.6686692 0 0 0 5.39864,5.6689 5.3987327,5.6686692 0 0 0 5.39915,-5.6689 5.3987327,5.6686692 0 0 0 -5.39915,-5.66839 z m -0.25012,12.84573 a 9.177846,5.6686692 0 0 0 -9.17773,5.6689 9.177846,5.6686692 0 0 0 0.07028,0.66198 v 15.91531 h 18.17563 v -15.73961 a 9.177846,5.6686692 0 0 0 0.11008,-0.83768 9.177846,5.6686692 0 0 0 -9.17826,-5.6689 z" /><circle
       style="fill:none;fill-opacity:1;stroke:#000000;stroke-width:4;stroke-linecap:square;stroke-linejoin:round;stroke-miterlimit:0;stroke-dasharray:none;stroke-opacity:1"
       id="path3"
       cx="34.162144"
       cy="172.91171"
       r="9.1400595" /><rect
       style="fill:none;fill-opacity:1;stroke:#000000;stroke-width:4;stroke-linecap:square;stroke-linejoin:round;stroke-miterlimit:0;stroke-dasharray:none;stroke-opacity:1"
       id="rect3"
       width="0.38174805"
       height="6.6169662"
       x="33.971272"
       y="179.1671" /><rect
       style="fill:none;fill-opacity:1;stroke:#000000;stroke-width:4;stroke-linecap:square;stroke-linejoin:round;stroke-miterlimit:0;stroke-dasharray:none;stroke-opacity:1"
       id="rect3-2"
       width="0.38174805"
       height="6.6169662"
       x="172.72084"
       y="-28.268007"
       transform="rotate(90)" /><rect
       style="fill:none;fill-opacity:1;stroke:#000000;stroke-width:4;stroke-linecap:square;stroke-linejoin:round;stroke-miterlimit:0;stroke-dasharray:none;stroke-opacity:1"
       id="rect3-2-1"
       width="0.38174805"
       height="6.6169662"
       x="172.72084"
       y="-46.487404"
       transform="rotate(90)" /><rect
       style="fill:none;fill-opacity:1;stroke:#000000;stroke-width:4;stroke-linecap:square;stroke-linejoin:round;stroke-miterlimit:0;stroke-dasharray:none;stroke-opacity:1"
       id="rect3-7"
       width="0.38174805"
       height="6.6169662"
       x="33.971272"
       y="160.76338" /><rect
       style="fill:none;stroke:#000000;stroke-width:3;stroke-linecap:square;stroke-linejoin:round;stroke-miterlimit:0;stroke-dasharray:none"
       id="rect4"
       width="0.12724936"
       height="3.3084831"
       x="145.06427"
       y="110.6666" /><path
       style="fill:none;stroke:#000000;stroke-width:2.1;stroke-linecap:butt;stroke-linejoin:round;stroke-dasharray:none;stroke-opacity:1"
       d="m 135.98299,114.45767 c 0,0 0.25879,0.67399 1.63718,1.10492 0.48703,0.15226 1.52552,0.12725 1.52552,0.12725 l 21.63386,0.12724"
       id="path5"
       sodipodi:nodetypes="cscc" /><path
       style="fill:#000000;stroke-width:0.538403"
       d="m 128.91895,39.236007 c -0.50634,-2.682275 1.14091,-5.128618 2.89364,-6.989594 1.05645,-1.107008 2.24135,-1.779081 2.67045,-3.276571 0.25688,-0.449424 -0.15697,-3.903735 0.44333,-2.600266 2.61919,4.933573 -0.8381,4.622408 0.17627,8.220087 1.33718,-0.310645 1.36898,-0.63615 2.16644,-2.325217 0.47056,-0.996663 -0.11978,3.40853 -0.0908,3.723046 -0.0194,1.919217 3.6659,2.189297 2.98105,-1.553383 -1.10176,-3.420838 -3.4785,-6.273687 -4.57323,-9.694883 -0.76954,-2.760407 -0.0308,-5.981997 2.16923,-7.895578 -0.0181,2.739606 -1.61234,6.273117 1.84359,8.696728 0.67536,0.473621 1.36762,-4.553239 2.77364,-3.665971 -2.18849,4.704011 4.61362,7.754352 6.40875,13.392806 1.92085,6.03336 -3.54523,9.483516 -10.27187,9.35775 -3.79893,-0.239017 -7.89184,-0.847824 -9.59057,-5.388956 z"
       id="path7"
       sodipodi:nodetypes="cssscsssssscsscc" /><path
       style="fill:#000000;stroke-width:0.51328"
       d="m 143.61841,215.49534 c -7.07442,-9.4539 -12.03392,-20.29534 -18.98996,-29.82225 -6.4502,-12.53781 2.55718,-29.72996 16.60904,-31.44294 12.65411,-2.24728 26.57554,7.59327 26.82185,20.85672 0.47397,8.37482 -4.90772,15.28093 -9.4359,21.75107 -3.90307,6.22255 -7.02028,12.97356 -11.72568,18.66593 -1.00844,0.54475 -2.26567,0.48462 -3.27935,-0.009 z m 4.31713,-23.72557 c 11.74501,-0.94521 18.24146,-17.50817 9.76417,-25.95156 -7.23428,-8.18484 -22.5752,-6.74441 -27.2265,3.47729 -4.27598,8.34581 0.73741,19.51589 9.7681,21.99975 2.47438,0.77888 5.14364,0.97619 7.69423,0.47452 z"
       id="path2-5-3-1" /><path
       style="fill:#000000;stroke:#000000;stroke-width:0.467585;stroke-dasharray:none;stroke-opacity:1"
       d="m 137.64865,188.22546 c -3.33364,-2.13585 -5.72459,-5.83504 -6.31866,-9.77607 -0.24628,-1.63382 -0.28518,-2.71059 -0.10192,-2.82379 0.15602,-0.0964 7.9165,0.61121 8.12651,0.74099 0.0872,0.0538 0.16016,0.35188 0.16212,0.66218 0.004,0.64089 0.53852,2.03915 1.05836,2.76921 0.19221,0.27004 0.67309,0.74667 1.06842,1.05915 0.43912,0.34713 0.69007,0.65518 0.64495,0.79174 -0.13749,0.41621 -3.25504,7.1005 -3.36412,7.21295 -0.0596,0.0614 -0.6336,-0.22499 -1.27569,-0.63636 z m 13.10372,-0.35411 c -0.28288,-0.60943 -1.03605,-2.23245 -1.67371,-3.6067 -0.63765,-1.37423 -1.15723,-2.57786 -1.15465,-2.6747 10e-4,-0.0968 0.30975,-0.40582 0.68254,-0.68661 1.11802,-0.84216 2.05877,-2.5882 2.0662,-3.83493 0.001,-0.21592 0.0529,-0.46926 0.11475,-0.56301 0.0982,-0.14886 6.60266,-0.82851 7.89194,-0.82442 l 0.44334,0.001 -0.0935,1.56661 c -0.21488,3.60087 -1.74871,6.83235 -4.48216,9.44288 -1.02837,0.98213 -2.84204,2.28755 -3.17815,2.28755 -0.0563,0 -0.33363,-0.49863 -0.61651,-1.10807 z m -7.25235,-7.56053 c -0.78528,-0.27738 -1.81073,-1.24351 -2.20634,-2.0788 -1.27386,-2.68945 0.71205,-5.76006 3.72165,-5.75443 2.3178,0.004 4.01943,1.67923 4.03242,3.96899 0.0177,2.95577 -2.72096,4.86267 -5.54773,3.86424 z m -2.76421,-10.46875 c -0.71451,-1.02515 -1.76222,-2.51483 -2.32824,-3.31041 -0.75779,-1.06516 -0.98707,-1.49713 -0.86973,-1.63852 0.32966,-0.39724 2.71415,-1.44126 4.0386,-1.76825 1.98391,-0.48983 5.10315,-0.48589 7.03063,0.008 1.29432,0.33221 3.74177,1.39976 4.03935,1.76191 0.0856,0.10424 -0.28245,0.75189 -1.00533,1.76918 -0.62722,0.88263 -1.54745,2.18942 -2.04495,2.90394 -0.4975,0.71454 -1.06113,1.48941 -1.25249,1.72196 l -0.34794,0.42279 -0.84062,-0.33504 c -1.07312,-0.4277 -2.95808,-0.45993 -3.97384,-0.0679 -0.37826,0.14601 -0.79093,0.29465 -0.91704,0.3304 -0.15384,0.0437 -0.65686,-0.54851 -1.5284,-1.79891 z"
       id="path11"
       sodipodi:nodetypes="sssscsssssscscscsccsssccssccscssscsssscssscc" /><path
       style="fill:#000000;stroke-width:0.51328"
       d="m 28.456787,286.60056 c -0.39954,-0.20872 -0.91032,-0.62286 -1.1359,-0.921 -0.22545,-0.29795 -3.4219,-5.61908 -7.10323,-11.82473 -4.83928,-8.15761 -6.91884,-11.54204 -7.50744,-12.21817 -2.53676,-2.91401 -4.36306,-6.76785 -5.01904,-10.59115 -0.31682,-1.84655 -0.37835,-5.03951 -0.12927,-6.70857 1.21531,-8.14356 6.53467,-14.69654 14.39185,-17.72948 4.45167,-1.71839 9.96506,-1.91855 14.73522,-0.53495 6.105117,1.7708 11.393687,6.26903 14.081657,11.97725 2.30697,4.89909 2.67763,10.84934 0.99674,16.00021 -0.88419,2.70945 -2.21989,5.09729 -4.13853,7.39845 -0.72385,0.86817 -2.6201,3.94776 -7.648727,12.42188 -3.67745,6.19715 -6.87073,11.51131 -7.09617,11.80926 -0.62047,0.82002 -1.64781,1.30027 -2.78153,1.30027 -0.74279,0 -1.05922,-0.0729 -1.64563,-0.37927 z m 4.31714,-23.72558 c 2.44316,-0.39625 4.51077,-1.2092 6.58451,-2.58892 9.373137,-6.23622 9.369317,-19.68913 -0.007,-25.92768 -9.82411,-6.53625 -23.37585,-0.98407 -25.3256,10.37596 -1.31862,7.68285 3.38638,15.17565 11.0436,17.58712 2.35144,0.74053 5.26242,0.94966 7.70485,0.55352 z"
       id="path2-8-5-8" /><g
       id="g12"
       transform="matrix(0.5294122,0,0,0.5294122,-18.436862,112.01935)"><path
         style="fill:#000000;stroke-width:1.32222113;stroke-dasharray:none;stroke:#000000;stroke-opacity:1"
         d="m 108.35381,276.44788 c 0.31253,-0.13324 0.66972,-0.39942 0.79375,-0.59152 0.12403,-0.1921 0.28504,-2.19474 0.3578,-4.45031 l 0.1323,-4.10104 2.14589,-0.0763 2.14589,-0.0763 0.36765,-2.43729 c 0.53893,-3.57281 0.49226,-10.88518 -0.0775,-12.14623 -0.41872,-0.9267 -0.51414,-0.98188 -1.83007,-1.05833 l -1.38831,-0.0806 -2.22187,-7.9375 c -1.61868,-5.78267 -2.36839,-8.0632 -2.7616,-8.40052 -0.49319,-0.42309 -1.39281,-0.46302 -10.43229,-0.46302 h -9.89257 v 1.58402 1.58403 l 9.06198,0.0696 9.06198,0.0696 1.76391,6.08542 c 0.97015,3.34697 1.77383,6.17471 1.78594,6.28385 0.0121,0.10914 -4.85954,0.19844 -10.82589,0.19844 H 85.69288 v 8.33437 8.33438 h 8.33438 8.33437 v 4.07173 c 0,5.23346 0.0358,5.29334 3.21775,5.3833 1.21342,0.0343 2.46192,-0.0466 2.77445,-0.17987 z m -6.49121,-12.29697 c -1.35782,-0.94097 -2.41239,-2.971 -2.40882,-4.63691 0.006,-2.76587 2.05629,-5.21524 4.60625,-5.50266 2.01095,-0.22666 3.00395,0.11146 4.38592,1.49343 0.99181,0.99181 1.32351,1.55138 1.55246,2.61894 0.6001,2.79818 -0.65653,5.40902 -3.14077,6.5254 -1.42755,0.64153 -3.67368,0.41751 -4.99504,-0.4982 z"
         id="path10" /><path
         style="fill:#000000;stroke:#000000;stroke-width:1.32222;stroke-dasharray:none;stroke-opacity:1"
         d="m 73.328672,276.44788 c -0.31253,-0.13324 -0.66972,-0.39942 -0.79375,-0.59152 -0.12403,-0.1921 -0.28504,-2.19474 -0.3578,-4.45031 l -0.1323,-4.10104 -2.14589,-0.0763 -2.14589,-0.0763 -0.36765,-2.43729 c -0.53893,-3.57281 -0.49226,-10.88518 0.0775,-12.14623 0.41872,-0.9267 0.51414,-0.98188 1.83007,-1.05833 l 1.38831,-0.0806 2.22187,-7.9375 c 1.61868,-5.78267 2.36839,-8.0632 2.7616,-8.40052 0.49319,-0.42309 1.39281,-0.46302 10.43229,-0.46302 h 9.89257 v 1.58402 1.58403 l -9.06198,0.0696 -9.06198,0.0696 -1.76391,6.08542 c -0.97015,3.34697 -1.77383,6.17471 -1.78594,6.28385 -0.0121,0.10914 4.85954,0.19844 10.82589,0.19844 h 10.84792 v 8.33437 8.33438 h -8.33438 -8.33437 v 4.07173 c 0,5.23346 -0.0358,5.29334 -3.21775,5.3833 -1.21342,0.0343 -2.46192,-0.0466 -2.77445,-0.17987 z m 6.49121,-12.29697 c 1.35782,-0.94097 2.41239,-2.971 2.40882,-4.63691 -0.006,-2.76587 -2.05629,-5.21524 -4.60625,-5.50266 -2.01095,-0.22666 -3.00395,0.11146 -4.38592,1.49343 -0.99181,0.99181 -1.32351,1.55138 -1.55246,2.61894 -0.6001,2.79818 0.65653,5.40902 3.14077,6.5254 1.42755,0.64153 3.67368,0.41751 4.99504,-0.4982 z"
         id="path10-7"
         sodipodi:nodetypes="csscccssscssscccccssscccccssccsssssss" /><path
         style="fill:none;stroke:#ffffff;stroke-width:2.34033141;stroke-linecap:butt;stroke-linejoin:miter;stroke-dasharray:none;stroke-opacity:1"
         d="m 86.470764,255.61775 v 7.50772"
         id="path12" /><path
         style="fill:none;stroke:#ffffff;stroke-width:2.34033141;stroke-linecap:butt;stroke-linejoin:miter;stroke-dasharray:none;stroke-opacity:1"
         d="m 90.996833,255.61775 v 7.50772"
         id="path12-2" /><path
         style="fill:none;stroke:#ffffff;stroke-width:2.34033141;stroke-linecap:butt;stroke-linejoin:miter;stroke-dasharray:none;stroke-opacity:1"
         d="m 95.522902,255.61775 v 7.50772"
         id="path12-2-4-2" /></g></g></svg>
