<?xml version="1.0" encoding="UTF-8" standalone="no"?>
<!-- Created with Inkscape (http://www.inkscape.org/) -->

<svg
   width="100mm"
   height="100mm"
   viewBox="0 0 100 100"
   version="1.1"
   id="svg1"
   xml:space="preserve"
   inkscape:version="1.3.2 (091e20e, 2023-11-25, custom)"
   sodipodi:docname="darclogo_01.svg"
   inkscape:export-filename="darclogo_01_b.png"
   inkscape:export-xdpi="101.6"
   inkscape:export-ydpi="101.6"
   xmlns:inkscape="http://www.inkscape.org/namespaces/inkscape"
   xmlns:sodipodi="http://sodipodi.sourceforge.net/DTD/sodipodi-0.dtd"
   xmlns="http://www.w3.org/2000/svg"
   xmlns:svg="http://www.w3.org/2000/svg"><sodipodi:namedview
     id="namedview1"
     pagecolor="#ffffff"
     bordercolor="#666666"
     borderopacity="1.0"
     inkscape:showpageshadow="2"
     inkscape:pageopacity="0.0"
     inkscape:pagecheckerboard="0"
     inkscape:deskcolor="#d1d1d1"
     inkscape:document-units="mm"
     inkscape:zoom="1.4778115"
     inkscape:cx="288.2641"
     inkscape:cy="186.42432"
     inkscape:window-width="3440"
     inkscape:window-height="1369"
     inkscape:window-x="1072"
     inkscape:window-y="280"
     inkscape:window-maximized="1"
     inkscape:current-layer="layer1" /><defs
     id="defs1" /><g
     inkscape:label="Layer 1"
     inkscape:groupmode="layer"
     id="layer1"><path
       style="fill:#000000;stroke-width:0.184207"
       d="M 30.069235,77.802384 C 29.999174,77.757996 25.809262,73.599531 20.758319,68.561353 11.707779,59.533686 10.341529,58.185841 5.4531266,53.462349 2.1265405,50.247985 2.0806068,50.201946 2.1673736,50.169091 c 0.041727,-0.01581 6.1890661,-6.113574 13.6607544,-13.550609 7.47169,-7.437036 13.635854,-13.533659 13.698141,-13.548053 0.183114,-0.04231 5.302414,5.053124 5.302414,5.277699 0,0.131381 -3.429345,3.613427 -10.76136,10.926735 -5.918748,5.903646 -10.76136,10.793135 -10.76136,10.865531 0,0.07239 4.970317,5.090152 11.045149,11.15057 6.452378,6.437071 11.068603,11.112394 11.101555,11.243685 0.04935,0.196629 -0.264083,0.545393 -2.505605,2.788027 -1.409106,1.409804 -2.604408,2.562638 -2.656226,2.56185 -0.05181,-7.37e-4 -0.151539,-0.03775 -0.221601,-0.08215 z M 46.578568,74.914888 C 35.982004,64.41361 22.382937,50.778974 22.382937,50.65597 c 0,-0.08022 1.152865,-1.295906 2.561922,-2.701549 1.945413,-1.940699 2.608374,-2.548158 2.754959,-2.524311 0.106553,0.01734 5.015387,4.841883 10.957498,10.769368 8.610759,8.589563 10.811836,10.737968 11.001238,10.737968 0.189385,0 2.392028,-2.149281 11.004569,-10.737968 5.922284,-5.905881 10.8541,-10.752097 10.959587,-10.769368 0.145057,-0.02375 0.816118,0.591403 2.753721,2.524311 1.409058,1.405643 2.561921,2.622727 2.561921,2.70463 0,0.177232 -27.062203,27.226907 -27.239514,27.226907 -0.06723,0 -1.471352,-1.336981 -3.12027,-2.97107 z m 20.489003,-0.537317 c -1.578402,-1.576962 -2.574964,-2.64195 -2.574964,-2.751766 0,-0.113456 4.050536,-4.205933 11.045448,-11.159817 6.487277,-6.449226 11.06916,-11.07394 11.102909,-11.206692 0.05115,-0.2012 -1.118867,-1.398854 -10.650148,-10.901726 -5.889189,-5.871633 -10.7648,-10.749961 -10.834696,-10.840729 -0.114776,-0.149054 0.127065,-0.418593 2.497826,-2.783917 1.443698,-1.440386 2.683805,-2.618882 2.755792,-2.618882 0.07199,0 6.27613,6.126024 13.786986,13.613391 L 97.852823,49.340824 96.402379,50.7702 c -3.827406,3.771811 -8.063898,7.937332 -12.54067,12.330585 -2.700958,2.650571 -6.922879,6.817667 -9.382047,9.260214 -4.352076,4.32266 -4.624489,4.584746 -4.768539,4.587756 -0.03772,7.37e-4 -1.22732,-1.156244 -2.643552,-2.571184 z M 43.065682,54.933078 c -6.402386,-6.380239 -7.131646,-7.093626 -9.825826,-9.611932 -1.720998,-1.608652 -2.154255,-2.048707 -2.154255,-2.188055 0,-0.191595 5.097804,-5.204531 5.292642,-5.204531 0.1113,0 2.590773,2.408288 6.590053,6.400849 3.52639,3.520465 6.506972,6.429062 6.623516,6.46355 0.185063,0.05476 1.029684,-0.752851 6.66971,-6.377455 3.5518,-3.542086 6.540149,-6.453503 6.64078,-6.469817 0.13305,-0.02157 0.88548,0.667133 2.758173,2.524569 1.416368,1.404828 2.57537,2.618301 2.575559,2.696606 1.84e-4,0.07831 -0.600822,0.731913 -1.33558,1.452457 -0.734758,0.720543 -3.291584,3.226069 -5.681833,5.567834 -2.390247,2.341765 -5.758073,5.650979 -7.484055,7.353809 -3.320782,3.276234 -3.951948,3.875436 -4.082165,3.875436 -0.04449,0 -3.008515,-2.917493 -6.586719,-6.48332 z"
       id="path1"
       sodipodi:nodetypes="sssssssssssscsssssssssssssssssssssscssscssssssssssssssss" /></g></svg>
